<?xml version="1.0" encoding="UTF-8" standalone="no"?>
<svg
   xmlns:dc="http://purl.org/dc/elements/1.1/"
   xmlns:cc="http://creativecommons.org/ns#"
   xmlns:rdf="http://www.w3.org/1999/02/22-rdf-syntax-ns#"
   xmlns:svg="http://www.w3.org/2000/svg"
   xmlns="http://www.w3.org/2000/svg"
   xmlns:sodipodi="http://sodipodi.sourceforge.net/DTD/sodipodi-0.dtd"
   xmlns:inkscape="http://www.inkscape.org/namespaces/inkscape"
   id="Layer_1"
   version="1.1"
   viewBox="0 0 1024 1024"
   xml:space="preserve"
   sodipodi:docname="icon.svg"
   width="1024"
   height="1024"
   inkscape:version="0.92.3 (2405546, 2018-03-11)"><metadata
     id="metadata14"><rdf:RDF><cc:Work
         rdf:about=""><dc:format>image/svg+xml</dc:format><dc:type
           rdf:resource="http://purl.org/dc/dcmitype/StillImage" /><dc:title></dc:title></cc:Work></rdf:RDF></metadata><defs
     id="defs12" /><sodipodi:namedview
     pagecolor="#ffffff"
     bordercolor="#666666"
     borderopacity="1"
     objecttolerance="10"
     gridtolerance="10"
     guidetolerance="10"
     inkscape:pageopacity="0"
     inkscape:pageshadow="2"
     inkscape:window-width="1920"
     inkscape:window-height="1052"
     id="namedview10"
     showgrid="false"
     inkscape:zoom="0.32593203"
     inkscape:cx="892.91239"
     inkscape:cy="584.62256"
     inkscape:window-x="1920"
     inkscape:window-y="0"
     inkscape:window-maximized="1"
     inkscape:current-layer="XMLID_686_" /><style
     type="text/css"
     id="style2">
	.st0{fill:#2F9DD9;}
</style><g
     id="XMLID_686_"
     transform="translate(0,512)"><path
       class="st0"
       d="M 681.6547,47.495783 H 122.80848 V 277.52809 H 597.47559 Z M 256.97967,199.87715 c 4.63844,6.35639 11.16661,9.44868 19.24094,9.44868 7.90253,0 14.08711,-2.06153 18.21017,-6.18459 4.12306,-4.12306 6.18459,-10.13585 6.18459,-18.03838 h 18.72556 l 0.17179,0.51538 c 0.1718,11.8538 -3.60767,21.30247 -11.5102,28.51783 -7.90253,7.21535 -18.55377,10.82302 -31.95371,10.82302 -13.57173,0 -24.56656,-4.63844 -33.15626,-13.74352 -8.41791,-9.10509 -12.71277,-20.95889 -12.71277,-35.2178 v -22.16144 c 0,-14.2589 4.12306,-25.9409 12.54097,-35.21779 8.41792,-9.27688 19.24095,-13.91532 32.64089,-13.91532 13.74352,0 24.56655,3.43588 32.46908,10.47944 7.90253,7.04356 11.682,16.66403 11.51021,28.86141 l -0.1718,0.51538 h -18.89735 c 0,-7.73073 -2.06153,-13.74352 -6.35638,-17.86658 -4.29485,-4.12306 -10.47944,-6.18459 -18.55376,-6.18459 -7.90253,0 -14.25892,3.09229 -18.89736,9.44868 -4.63844,6.35638 -6.87176,14.25891 -6.87176,23.87937 v 22.33324 c 0.34359,9.44867 2.57691,17.3512 7.38715,23.70758 z m 155.98905,16.32044 c -7.55894,5.841 -17.523,8.58971 -29.89218,8.58971 -11.85379,0 -22.16144,-3.09229 -31.09473,-9.44868 -8.7615,-6.35638 -13.05635,-15.28967 -12.88456,-26.79988 l 0.17179,-0.51538 h 18.72556 c 0,7.04356 2.40512,12.36918 7.21535,15.80506 4.81024,3.60768 10.82303,5.32562 17.6948,5.32562 6.87176,0 12.19738,-1.37436 16.14864,-4.29486 3.77947,-2.9205 5.66921,-6.87176 5.66921,-11.85379 0,-4.81024 -1.71794,-8.93329 -5.15382,-12.02559 -3.43589,-3.09229 -9.62047,-5.841 -18.38197,-8.41791 -12.54097,-3.43588 -22.33324,-8.07432 -29.03321,-13.74353 -6.87176,-5.6692 -10.30764,-13.05635 -10.30764,-22.16143 0,-9.44868 3.77947,-17.17942 11.16661,-23.364 7.55894,-6.18459 17.17941,-9.10509 28.86141,-9.10509 12.71277,0 22.67683,3.43588 30.23577,10.13585 7.55894,6.69997 11.16661,15.11788 10.99482,25.08194 l -0.17179,0.51538 h -18.72556 c 0,-6.18458 -2.06153,-10.99482 -6.18459,-14.77429 -4.12306,-3.60768 -9.62047,-5.49741 -16.32044,-5.49741 -6.52818,0 -11.682,1.54615 -15.28968,4.63844 -3.60767,3.09229 -5.32561,7.04356 -5.32561,12.02559 0,4.46664 1.88973,8.24611 5.841,11.16661 3.95126,2.9205 10.30764,5.66921 19.41273,8.24612 12.19738,3.43588 21.64606,8.07432 28.00244,14.08712 6.35638,5.84099 9.62047,13.39994 9.62047,22.67682 0.34359,10.13585 -3.43588,17.86658 -10.99482,23.70758 z m 105.99696,0 c -7.55894,5.841 -17.523,8.58971 -29.89217,8.58971 -11.8538,0 -22.16144,-3.09229 -31.09474,-9.44868 -8.7615,-6.35638 -13.05635,-15.28967 -12.88455,-26.79988 l 0.17179,-0.51538 h 18.72556 c 0,7.04356 2.40512,12.36918 7.21535,15.80506 4.81024,3.60768 10.82303,5.32562 17.69479,5.32562 6.87177,0 12.19739,-1.37436 16.14865,-4.29486 3.77947,-2.9205 5.66921,-6.87176 5.66921,-11.85379 0,-4.81024 -1.71795,-8.93329 -5.15383,-12.02559 -3.43588,-3.09229 -9.62047,-5.841 -18.38197,-8.41791 -12.54097,-3.43588 -22.33323,-8.07432 -29.0332,-13.74353 -6.87177,-5.6692 -10.30765,-13.05635 -10.30765,-22.16143 0,-9.44868 3.77947,-17.17942 11.16662,-23.364 7.55894,-6.18459 17.17941,-9.10509 28.86141,-9.10509 12.71276,0 22.67682,3.43588 30.23576,10.13585 7.55894,6.69997 11.16662,15.11788 10.99483,25.08194 l -0.1718,0.51538 h -18.72556 c 0,-6.18458 -2.06153,-10.99482 -6.18458,-14.77429 -4.12306,-3.60768 -9.62047,-5.49741 -16.32044,-5.49741 -6.52818,0 -11.682,1.54615 -15.28968,4.63844 -3.60768,3.09229 -5.32562,7.04356 -5.32562,12.02559 0,4.46664 1.88974,8.24611 5.841,11.16661 3.95127,2.9205 10.30765,5.66921 19.41274,8.24612 12.19738,3.43588 21.64605,8.07432 28.00244,14.08712 6.35638,5.84099 9.62047,13.39994 9.62047,22.67682 0.34358,10.13585 -3.43589,17.86658 -10.99483,23.70758 z"
       id="XMLID_690_"
       inkscape:connector-curvature="0"
       style="fill:#69499e;fill-opacity:1;stroke-width:1.71794105" /><path
       class="st0"
       d="m 659.83685,-433.35593 v 0 H 238.08231 c -12.54097,0 -22.84861,10.30765 -22.84861,22.84862 V 30.65996 h 45.69723 V -387.6587 h 398.90592 v 158.39417 H 818.23102 V 379.91738 H 260.93093 V 294.36391 H 215.2337 V 402.766 c 0,12.54097 10.30764,22.84862 22.84861,22.84862 h 602.99733 c 12.54097,0 22.84861,-10.30765 22.84861,-22.84862 v -632.03053 z"
       id="XMLID_689_"
       inkscape:connector-curvature="0"
       style="fill:#69499e;fill-opacity:1;stroke-width:1.71794105" /><rect
       class="st0"
       height="33.671646"
       id="XMLID_688_"
       width="435.32626"
       x="321.91785"
       y="-149.20848"
       style="fill:#69499e;fill-opacity:1;stroke-width:1.71794105" /><rect
       class="st0"
       height="33.671646"
       id="XMLID_687_"
       width="366.43683"
       x="321.91785"
       y="-83.754913"
       style="fill:#69499e;fill-opacity:1;stroke-width:1.71794105" /></g></svg>